<?xml version="1.0" encoding="utf-8"?>
<!-- Generator: Adobe Illustrator 28.0.0, SVG Export Plug-In . SVG Version: 6.00 Build 0)  -->
<svg version="1.1" id="_レイヤー_1" xmlns="http://www.w3.org/2000/svg" xmlns:xlink="http://www.w3.org/1999/xlink" x="0px"
	 y="0px" viewBox="0 0 283.5 283.5" style="enable-background:new 0 0 283.5 283.5;" xml:space="preserve">
<style type="text/css">
	.st0{fill:none;stroke:#231815;stroke-width:3;stroke-miterlimit:10;}
	.st1{fill:none;stroke:#000000;stroke-width:3;stroke-miterlimit:10;}
	.st2{fill:none;stroke:#000000;stroke-width:2;stroke-miterlimit:10;}
</style>
<g>
	<path class="st0" d="M192.2,102.2h-20.4c-1.5,0-2.9-0.9-3.5-2.3l-6.7-15h-39.8l-7.1,15.9c-0.4,0.8-1.1,1.3-2,1.3H109v-4.5H92.9v4.5
		h-5.5c-7.4,0-13.4,6-13.4,13.4V185c0,7.4,6,13.4,13.4,13.4H196c7.4,0,13.4-6,13.4-13.4v-65.5C209.5,110,201.7,102.2,192.2,102.2
		L192.2,102.2z"/>
	<circle class="st1" cx="141.7" cy="150.3" r="24.4"/>
	<path class="st2" d="M180.8,117.6h13.5c0.7,0,1.3,0.6,1.3,1.3v4.8c0,0.7-0.6,1.3-1.3,1.3h-13.5c-0.7,0-1.3-0.6-1.3-1.3v-4.8
		C179.5,118.2,180.1,117.6,180.8,117.6z"/>
</g>
</svg>
