<svg viewBox="0 0 595.28 595.28" xmlns="http://www.w3.org/2000/svg"><path d="m450.98 344.71c55.13-17.91 96.03-52.3 106.14-85.34l-53.82-11.44 36.81-40.89c-27.61-20.79-80.91-24.57-136.03-6.66-14.24 4.63-27.02 11.93-38.36 20.66 4.79-13.48 7.79-27.89 7.79-42.87 0-57.96-20.06-107.49-48.37-127.32l-27.51 47.65-27.51-47.65c-28.31 19.83-48.37 69.35-48.37 127.32 0 14.98 3 29.38 7.79 42.87-11.34-8.73-24.12-16.03-38.36-20.66-55.13-17.91-108.43-14.14-136.03 6.66l36.81 40.89-53.82 11.44c10.11 33.05 51.01 67.43 106.14 85.34 14.24 4.63 28.87 6.23 43.18 5.84-11.8 8.09-22.7 17.98-31.5 30.1-34.07 46.89-46.95 98.75-35.71 131.43l50.26-22.38-5.75 54.72c34.56.59 79.9-27.68 113.96-74.57 8.8-12.12 14.85-25.53 18.89-39.26 4.05 13.73 10.09 27.14 18.89 39.26 34.07 46.89 79.41 75.17 113.96 74.57l-5.75-54.72 50.26 22.38c11.24-32.68-1.64-84.54-35.71-131.43-8.8-12.12-19.7-22.01-31.5-30.1 14.3.39 28.93-1.21 43.18-5.84z" fill="#92b6e0"/></svg>