<?xml version="1.0" encoding="utf-8"?>
<!-- Generator: Adobe Illustrator 28.0.0, SVG Export Plug-In . SVG Version: 6.00 Build 0)  -->
<svg version="1.1" xmlns="http://www.w3.org/2000/svg" xmlns:xlink="http://www.w3.org/1999/xlink" x="0px" y="0px"
	 viewBox="0 0 512 512" style="enable-background:new 0 0 512 512;" xml:space="preserve">
<style type="text/css">
	.st0{clip-path:url(#SVGID_00000067228103287754229040000011783337806361544618_);}
	.st1{fill:none;stroke:#009F1F;stroke-width:2;stroke-miterlimit:10;}
</style>
<g id="_2">
	<g>
		<defs>
			<circle id="SVGID_1_" cx="261.9" cy="269.3" r="126"/>
		</defs>
		<clipPath id="SVGID_00000172428248957885617050000012217708104775689104_">
			<use xlink:href="#SVGID_1_"  style="overflow:visible;"/>
		</clipPath>
		<g style="clip-path:url(#SVGID_00000172428248957885617050000012217708104775689104_);">
			<path class="st1" d="M139.1,302.6l16.5-10.3c5.7-3.5,12.4-5,19-4.1l15.6,2.1c2.9,0.4,5.8-0.2,8.2-1.7l10.6-6.3l13.1-7.4
				c4.7-2.7,7.6-7.7,7.6-13.1v-20.3c0-5.4,1.9-10.7,5.4-14.8l2.5-2.9c2.8-3.4,6.4-6,10.5-7.7l15.5-6.4c5-2.1,9.2-5.6,12.1-10.2
				l6.7-10.7c1.6-2.6,2.5-5.5,2.5-8.6v0c0-7.9,1.8-15.7,5.4-22.8l5.9-11.8c-57.8-9.9-114.1,13.1-142.1,57.8
				C127.2,245.9,136.6,291.7,139.1,302.6z"/>
			<path class="st1" d="M348.5,178.1l-3.8,2c-6.8,3.6-6.5,13.5,0.5,16.7v0c4,1.9,6.6,5.9,6.6,10.3v0.8c0,9.7,2.9,19.3,8.4,27.3
				l4.3,6.3c4.3,6.4,6.1,14.1,5,21.7l0,0c-0.1,0.9,0.2,1.8,0.9,2.3l16.9,13.3c1-10.6,1.6-30.8-7.1-54
				C371.1,200.6,356.4,185.3,348.5,178.1z"/>
			<path class="st1" d="M313,378.5L313,378.5c-1.5-1.5-3.7-2-5.7-1.2l-4.9,2c-1.4,0.5-2.9,0.5-4.2-0.1l-30.5-14.7
				c-0.8-0.4-1.5-0.9-2-1.6l-6.3-8.8c-2.3-3.2-5.6-5.6-9.3-6.8l-2.8-0.9c-2.2-0.7-4.7,0.2-5.9,2.2l0,0c-0.8,1.3-1.1,2.8-0.9,4.4
				l1.2,7.1c0.3,1.6,0.7,3.2,1.4,4.7l2.1,4.7c0.6,1.2,1,2.5,1.3,3.8l1.5,6.3c0.4,1.6,1.2,3.2,2.4,4.4l9.8,9.9c1,1,2.4,1.6,3.8,1.5
				c8.2-0.2,18-1.1,28.8-3.4c6.6-1.4,12.6-3.1,18-4.9C314.5,385.8,315.6,381.2,313,378.5z"/>
			<g>
				<path class="st1" d="M265,239l-2.5,3.9c-0.2,0.3-0.3,0.6-0.3,1l-0.2,3.4c0,0.7,0.2,1.3,0.7,1.7l1.6,1.3c0.7,0.5,1.6,0.6,2.3,0.2
					l4.9-2.7c0.4-0.2,0.8-0.6,1-1.1l1.1-3c0.3-0.8,0.1-1.6-0.5-2.2l-2.4-2.3c-0.2-0.2-0.6-0.4-0.9-0.5l-2.4-0.7
					C266.4,237.8,265.5,238.2,265,239z"/>
				<path class="st1" d="M254.8,262.6l0-0.2c0-0.9,0.3-1.7,0.8-2.4l3.7-5c0.5-0.7,1.3-1.2,2.2-1.3l1-0.1c0.7-0.1,1.4,0.1,1.9,0.6
					l0.3,0.3c1,0.9,1.5,2.2,1.3,3.6l-0.3,3c-0.1,0.6-0.2,1.1-0.5,1.6l-3,5.3c-0.4,0.8-0.6,1.7-0.5,2.6l0,0c0.2,1.5-0.5,3.1-1.8,4
					l-3,2.1c-0.2,0.1-0.4,0.3-0.7,0.4l-4.8,2.3c-0.9,0.4-1.9,0.5-2.8,0.1l-0.2-0.1c-1-0.4-1.7-1.2-2-2.2l-0.1-0.2
					c-0.3-1.2-0.2-2.4,0.3-3.6l1-2.3c0.3-0.7,0.8-1.4,1.4-1.9l2.6-2.4c0.2-0.2,0.5-0.4,0.8-0.6l0.2-0.1
					C253.9,265.4,254.7,264.1,254.8,262.6z"/>
				<path class="st1" d="M244.2,278.9c0.2,1.6-1,3.4-2.5,3.5c-1.6,0.1-3.7-1-3.2-2.5c0.4-1.6,0.7-3,2.3-3.2
					C242.3,276.5,244,277.3,244.2,278.9z"/>
			</g>
		</g>
		<use xlink:href="#SVGID_1_"  style="overflow:visible;fill:none;stroke:#009F1F;stroke-width:2;stroke-miterlimit:10;"/>
	</g>
</g>
<g id="レイヤー_2">
</g>
</svg>
