<?xml version="1.0" encoding="UTF-8"?>
<svg id="_レイヤー_1" data-name="レイヤー 1" xmlns="http://www.w3.org/2000/svg" viewBox="0 0 283.46 283.46">
  <defs>
    <style>
      .cls-1 {
        stroke: #fff;
        stroke-miterlimit: 10;
        stroke-width: 3px;
      }

      .cls-1, .cls-2 {
        fill: #231815;
      }

      .cls-2, .cls-3 {
        stroke-width: 0px;
      }

      .cls-3 {
        fill: #fff;
      }
    </style>
  </defs>
  <g>
    <rect class="cls-2" x="65.96" y="101.38" width="132.29" height="93.94" rx="8.86" ry="8.86"/>
    <path class="cls-3" d="m152.49,123.44h-73.45c-4.14,0-7.5-3.36-7.5-7.5v-17.37c0-4.14,3.36-7.5,7.5-7.5h47.61c2.8,0,5.36,1.56,6.65,4.04l19.19,28.34Z"/>
    <path class="cls-2" d="m161.55,126.37h-86.73c-4.89,0-8.86-3.96-8.86-8.86v-20.52c0-4.89,3.96-8.86,8.86-8.86h56.21c3.3,0,6.33,1.84,7.86,4.77l22.66,33.46Z"/>
  </g>
  <path class="cls-1" d="m187.44,194.45h-114.58c-4.89,0-7.88-3.35-6.67-7.49l18.8-64.44c1.21-4.13,6.15-7.49,11.04-7.49h114.58c4.89,0,7.88,3.35,6.67,7.49l-18.8,64.44c-1.21,4.13-6.15,7.49-11.04,7.49Z"/>
</svg>