<?xml version="1.0" encoding="utf-8"?>
<!-- Generator: Adobe Illustrator 28.0.0, SVG Export Plug-In . SVG Version: 6.00 Build 0)  -->
<svg version="1.1" id="_レイヤー_1" xmlns="http://www.w3.org/2000/svg" xmlns:xlink="http://www.w3.org/1999/xlink" x="0px"
	 y="0px" viewBox="0 0 283.5 283.5" style="enable-background:new 0 0 283.5 283.5;" xml:space="preserve">
<style type="text/css">
	.st0{fill:none;stroke:#000000;stroke-width:10;stroke-linecap:round;stroke-linejoin:round;}
</style>
<g>
	<path class="st0" d="M186.1,229.6v-20.1c0-10.7-3.4-20.9-9.5-28.4s-14.4-11.8-23-11.8H88.4c-8.6,0-16.9,4.2-23,11.8
		c-6.1,7.5-9.5,17.8-9.5,28.4v20.1"/>
	<path class="st0" d="M121,134.2c22.2,0,40.2-18,40.2-40.2s-18-40.2-40.2-40.2S80.8,71.8,80.8,94S98.8,134.2,121,134.2z"/>
	<path class="st0" d="M227.6,229.6v-20.1c0-8.9-3-17.5-8.4-24.6s-13.1-12.1-21.7-14.3"/>
	<path class="st0" d="M170.3,55.2c8.6,2.2,16.3,7.2,21.8,14.3c5.5,7,8.4,15.7,8.4,24.6s-3,17.6-8.4,24.6c-5.5,7-13.1,12.1-21.8,14.3
		"/>
</g>
</svg>
