<svg viewBox="0 0 283.5 283.5" xmlns="http://www.w3.org/2000/svg"><g fill="none" stroke="#000" stroke-linecap="round" stroke-linejoin="round" stroke-width="10"><path d="m195.12 247.52v-24.19c0-12.88-4.09-25.15-11.43-34.18s-17.33-14.2-27.68-14.2h-78.46c-10.35 0-20.34 5.05-27.68 14.2-7.34 9.03-11.43 21.42-11.43 34.18v24.19"/><path d="m116.78 132.72c26.71 0 48.37-21.66 48.37-48.37s-21.66-48.37-48.37-48.37-48.37 21.66-48.37 48.37 21.66 48.37 48.37 48.37z"/><path d="m245.06 247.52v-24.19c0-10.71-3.61-21.06-10.11-29.6s-15.76-14.56-26.11-17.21"/><path d="m176.11 37.66c10.35 2.65 19.61 8.66 26.23 17.21 6.62 8.42 10.11 18.89 10.11 29.6s-3.61 21.18-10.11 29.6c-6.62 8.42-15.76 14.56-26.23 17.21"/></g></svg>