<svg width="22" height="22" viewBox="0 0 22 22" fill="none" xmlns="http://www.w3.org/2000/svg">
<path d="M16 12.0004L12 21.0004C11.2044 21.0004 10.4413 20.6843 9.87871 20.1217C9.3161 19.5591 9.00003 18.796 9.00003 18.0004V14.0004H3.34003C3.05012 14.0036 2.76297 13.9439 2.49846 13.8251C2.23395 13.7064 1.99842 13.5316 1.80817 13.3128C1.61793 13.0941 1.47753 12.8365 1.39669 12.5581C1.31586 12.2797 1.29652 11.987 1.34003 11.7004L2.72003 2.70036C2.79235 2.22346 3.0346 1.78875 3.40212 1.47636C3.76965 1.16396 4.2377 0.994909 4.72003 1.00036H16M16 12.0004V1.00036M16 12.0004H18.67C19.236 12.0104 19.7859 11.8122 20.2154 11.4435C20.645 11.0749 20.9242 10.5613 21 10.0004V3.00036C20.9242 2.43942 20.645 1.92586 20.2154 1.55718C19.7859 1.1885 19.236 0.990352 18.67 1.00036H16" stroke="#91BDFF" stroke-width="2" stroke-linecap="round" stroke-linejoin="round"/>
</svg>
