<svg width="25" height="23" viewBox="0 0 25 23" fill="none" xmlns="http://www.w3.org/2000/svg">
<path d="M17.7734 0.953329C16.859 0.950992 15.9531 1.12996 15.1082 1.4799C14.2633 1.82983 13.4962 2.34379 12.8512 2.99204L12.5 3.34325L12.1488 2.99204C11.1753 2.01849 9.93495 1.3555 8.58463 1.08689C7.23431 0.818286 5.83467 0.956136 4.5627 1.48301C3.29073 2.00988 2.20357 2.90211 1.43869 4.04687C0.673815 5.19163 0.265585 6.53749 0.265625 7.91427C0.265625 15.5439 11.4253 21.64 11.8999 21.8963C12.0843 21.9956 12.2905 22.0476 12.5 22.0476C12.7095 22.0476 12.9157 21.9956 13.1001 21.8963C13.5747 21.64 24.7344 15.5439 24.7344 7.91427C24.7321 6.0688 23.998 4.29955 22.6931 2.99461C21.3882 1.68966 19.6189 0.955562 17.7734 0.953329ZM17.1944 15.9679C15.7255 17.2143 14.1553 18.3362 12.5 19.3218C10.8447 18.3362 9.27448 17.2143 7.80559 15.9679C5.52008 14.0072 2.79688 11.0172 2.79688 7.91427C2.79681 7.03811 3.05657 6.18161 3.54331 5.4531C4.03005 4.72458 4.72189 4.15677 5.53135 3.82147C6.34081 3.48617 7.23152 3.39845 8.09084 3.56939C8.95016 3.74034 9.73948 4.16228 10.359 4.78184L10.707 5.13306L9.91391 5.92618C9.79592 6.04376 9.7023 6.18348 9.63842 6.33732C9.57454 6.49116 9.54166 6.65609 9.54166 6.82267C9.54166 6.98924 9.57454 7.15417 9.63842 7.30801C9.7023 7.46185 9.79592 7.60157 9.91391 7.71915L12.2026 10.0078L10.7577 11.4517C10.5199 11.6895 10.3863 12.0119 10.3863 12.3482C10.3863 12.6844 10.5199 13.0069 10.7577 13.2447C10.9954 13.4824 11.3179 13.616 11.6541 13.616C11.9904 13.616 12.3129 13.4824 12.5506 13.2447L14.8899 10.9043C15.0079 10.7867 15.1015 10.647 15.1654 10.4932C15.2293 10.3393 15.2622 10.1744 15.2622 10.0078C15.2622 9.84125 15.2293 9.67631 15.1654 9.52247C15.1015 9.36863 15.0079 9.22892 14.8899 9.11134L12.6055 6.82056L14.641 4.78184C15.2605 4.16228 16.0498 3.74034 16.9092 3.56939C17.7685 3.39845 18.6592 3.48617 19.4686 3.82147C20.2781 4.15677 20.97 4.72458 21.4567 5.4531C21.9434 6.18161 22.2032 7.03811 22.2031 7.91427C22.2031 11.0172 19.4799 14.0072 17.1944 15.9679Z" fill="#91BDFF"/>
</svg>
