<?xml version="1.0" encoding="utf-8"?>
<!-- Generator: Adobe Illustrator 28.0.0, SVG Export Plug-In . SVG Version: 6.00 Build 0)  -->
<svg version="1.1" id="_レイヤー_1" xmlns="http://www.w3.org/2000/svg" xmlns:xlink="http://www.w3.org/1999/xlink" x="0px"
	 y="0px" viewBox="0 0 283.5 283.5" style="enable-background:new 0 0 283.5 283.5;" xml:space="preserve">
<style type="text/css">
	.st0{fill:none;stroke:#000000;stroke-width:10;stroke-linecap:round;stroke-linejoin:round;}
</style>
<g>
	<path class="st0" d="M223.7,130.6H60.3C47.4,130.6,37,141.1,37,154v81.7c0,12.9,10.5,23.3,23.3,23.3h163.4
		c12.9,0,23.3-10.5,23.3-23.3V154C247,141.1,236.6,130.6,223.7,130.6z"/>
	<path class="st0" d="M83.6,130.6V83.9c0-15.5,6.1-30.3,17.1-41.3s25.8-17.1,41.3-17.1s30.3,6.1,41.3,17.1
		c10.9,10.9,17.1,25.8,17.1,41.3v46.7"/>
	<path d="M155.6,187.2c0-7.5-6.1-13.6-13.6-13.6s-13.6,6.1-13.6,13.6c0,5.8,3.6,10.7,8.8,12.7v19h9.7v-19
		C151.9,197.9,155.6,193,155.6,187.2z"/>
</g>
</svg>
