<?xml version="1.0" encoding="utf-8"?>
<!-- Generator: Adobe Illustrator 28.0.0, SVG Export Plug-In . SVG Version: 6.00 Build 0)  -->
<svg version="1.1" id="_レイヤー_1" xmlns="http://www.w3.org/2000/svg" xmlns:xlink="http://www.w3.org/1999/xlink" x="0px"
	 y="0px" viewBox="0 0 595.3 595.3" style="enable-background:new 0 0 595.3 595.3;" xml:space="preserve">
<style type="text/css">
	.st0{fill:none;stroke:#17499D;stroke-miterlimit:10;}
</style>
<line class="st0" x1="283.3" y1="201.8" x2="283.3" y2="300.9"/>
<line class="st0" x1="254.5" y1="201.8" x2="254.5" y2="330.4"/>
<line class="st0" x1="312" y1="201.8" x2="312" y2="300.9"/>
<line class="st0" x1="340.8" y1="201.8" x2="340.8" y2="300.9"/>
<path class="st0" d="M254.5,201.8c0-7.9,6.4-14.2,14.4-14.2s14.4,6.4,14.4,14.2"/>
<path class="st0" d="M283.3,201.8c0-7.9,6.4-14.2,14.4-14.2S312,194,312,201.8"/>
<path class="st0" d="M312,201.8c0-7.9,6.4-14.2,14.4-14.2s14.4,6.4,14.4,14.2"/>
<path class="st0" d="M340.8,241.7c0-7.9,6.4-14.2,14.4-14.2s14.4,6.4,14.4,14.2"/>
<line class="st0" x1="225.8" y1="270.4" x2="225.8" y2="356.6"/>
<path class="st0" d="M225.8,270.4c0-7.9,6.4-14.2,14.4-14.2s14.4,6.4,14.4,14.2"/>
<line class="st0" x1="369.5" y1="241.7" x2="369.5" y2="313.5"/>
<path class="st0" d="M225.8,356.6c0,6.6,3.6,12,3.6,12l22.4,30.5c4.6,5.4,11.5,8.6,18.6,8.6H345c13.5,0,24.5-11,24.5-24.5v-69.7"/>
</svg>
