<?xml version="1.0" encoding="utf-8"?>
<!-- Generator: Adobe Illustrator 28.0.0, SVG Export Plug-In . SVG Version: 6.00 Build 0)  -->
<svg version="1.1" id="_レイヤー_1" xmlns="http://www.w3.org/2000/svg" xmlns:xlink="http://www.w3.org/1999/xlink" x="0px"
	 y="0px" viewBox="0 0 283.5 283.5" style="enable-background:new 0 0 283.5 283.5;" xml:space="preserve">
<style type="text/css">
	.st0{fill:none;stroke:#000000;stroke-width:10;stroke-miterlimit:10;}
</style>
<g>
	<path class="st0" d="M27.9,52c0-7,5.7-12.7,12.7-12.7h55.6c12.1,0,23.7,4.8,32.2,13.3c8.5,8.5,13.3,20.1,13.3,32.2v159.3
		c0-9.1-3.6-17.7-10-24.1c-6.4-6.4-15.1-10-24.1-10h-67c-7,0-12.7-5.7-12.7-12.7V52z"/>
	<path class="st0" d="M255.6,52c0-7-5.7-12.7-12.7-12.7h-55.6c-12.1,0-23.7,4.8-32.2,13.3c-8.5,8.5-13.3,20.1-13.3,32.2v159.3
		c0-9.1,3.6-17.7,10-24.1c6.4-6.4,15.1-10,24.1-10h67c7,0,12.7-5.7,12.7-12.7V52z"/>
</g>
</svg>
