<svg enable-background="new 0 0 24 24" viewBox="0 0 24 24" xmlns="http://www.w3.org/2000/svg"><g stroke="#000" stroke-linecap="round" stroke-linejoin="round" stroke-width=".75"><path d="m5.5 8.6h13.2c.9 0 1.7.7 1.7 1.6v9.6c0 .9-.7 1.6-1.7 1.6h-13.2c-.9 0-1.7-.7-1.7-1.6v-9.6c.1-.9.8-1.6 1.7-1.6z" fill="none"/><path d="m9.2 8.6v-3.6c.5-1.5 1.5-2.2 2.9-2.2" fill="none"/><path d="m15.1 8.6v-3.6c-.5-1.5-1.5-2.2-2.9-2.2" fill="none"/><circle cx="12" cy="14" r="1"/><path d="m12 14v3.4" fill="none"/></g><path d="m14 7.5c2.4-2.4 2.4-2.4 2.4-2.4" stroke="#fff" stroke-miterlimit="10"/></svg>